<?xml version="1.0" encoding="iso-8859-1"?>
<!-- Uploaded to: SVG Repo, www.svgrepo.com, Generator: SVG Repo Mixer Tools -->
<svg height="20px" width="20px" version="1.1" id="Layer_1" xmlns="http://www.w3.org/2000/svg" xmlns:xlink="http://www.w3.org/1999/xlink"
	 viewBox="0 0 380.446 380.446" xml:space="preserve">
<g>
	<path style="fill:#F7CF52;" d="M363.262,116.333c-2.68-1.227-6.508-2.734-11.101-4.075c-4.594-1.346-9.953-2.546-15.695-3.34
		c-2.472-0.353-5.024-0.611-7.607-0.81c-0.199-2.583-0.457-5.135-0.81-7.607c-0.795-5.742-1.994-11.101-3.34-15.695
		c-1.341-4.594-2.848-8.422-4.075-11.101c-1.214-2.68-2.16-4.211-2.16-4.211s-0.946,1.531-2.16,4.211
		c-1.227,2.679-2.734,6.508-4.075,11.101c-1.347,4.594-2.546,9.953-3.34,15.695c-0.352,2.466-0.609,5.011-0.808,7.589
		c-2.584,0.196-5.136,0.451-7.609,0.802c-2.871,0.399-5.646,0.892-8.278,1.456c-2.632,0.552-5.12,1.229-7.417,1.881
		c-2.297,0.684-4.402,1.386-6.268,2.087c-1.866,0.706-3.493,1.383-4.833,2.005c-2.68,1.22-4.211,2.172-4.211,2.172
		s1.531,0.952,4.211,2.172c1.34,0.622,2.967,1.299,4.833,2.005c1.866,0.702,3.972,1.404,6.268,2.088
		c2.297,0.652,4.785,1.329,7.417,1.881c2.632,0.565,5.407,1.057,8.278,1.456c2.467,0.349,5.013,0.604,7.59,0.8
		c0.196,2.577,0.451,5.124,0.8,7.59c0.399,2.871,0.891,5.646,1.456,8.278c0.552,2.632,1.229,5.12,1.881,7.417
		c0.684,2.297,1.386,4.402,2.088,6.269c0.706,1.866,1.383,3.493,2.005,4.833c1.22,2.68,2.172,4.211,2.172,4.211
		s0.952-1.531,2.172-4.211c0.622-1.34,1.299-2.967,2.005-4.833c0.701-1.866,1.404-3.972,2.088-6.269
		c0.651-2.297,1.328-4.785,1.881-7.417c0.565-2.632,1.057-5.407,1.456-8.278c0.35-2.473,0.606-5.025,0.802-7.609
		c2.577-0.199,5.122-0.457,7.589-0.808c5.742-0.794,11.101-1.994,15.695-3.34c4.594-1.341,8.422-2.848,11.101-4.075
		c2.68-1.214,4.211-2.16,4.211-2.16S365.942,117.547,363.262,116.333z"/>
	<path style="fill:#F7CF52;" d="M299.845,229.947c-0.41-0.309-1.012-0.843-1.777-1.362c-1.531-1.083-3.719-2.415-6.344-3.599
		c-2.625-1.189-5.687-2.248-8.969-2.95c-0.504-0.111-1.022-0.197-1.535-0.291c-0.094-0.513-0.179-1.031-0.29-1.535
		c-0.702-3.281-1.76-6.344-2.95-8.969c-1.184-2.625-2.515-4.813-3.599-6.344c-0.519-0.766-1.053-1.367-1.362-1.777
		c-0.332-0.41-0.546-0.629-0.546-0.629s-0.213,0.219-0.546,0.629c-0.309,0.41-0.843,1.012-1.362,1.777
		c-1.083,1.531-2.414,3.719-3.599,6.344c-1.189,2.625-2.248,5.687-2.95,8.969c-0.109,0.497-0.194,1.007-0.286,1.513
		c-0.515,0.093-1.034,0.178-1.539,0.289c-1.641,0.353-3.227,0.787-4.73,1.286c-1.504,0.488-2.926,1.086-4.238,1.661
		c-1.313,0.604-2.516,1.224-3.582,1.844c-1.066,0.623-1.996,1.221-2.762,1.771c-0.766,0.523-1.367,1.058-1.777,1.37
		c-0.41,0.334-0.629,0.549-0.629,0.549s0.219,0.215,0.629,0.549c0.41,0.311,1.012,0.847,1.777,1.37
		c0.766,0.549,1.695,1.147,2.762,1.771c1.066,0.62,2.27,1.24,3.582,1.843c1.313,0.576,2.734,1.173,4.238,1.661
		c1.504,0.499,3.09,0.934,4.73,1.286c0.498,0.109,1.01,0.193,1.517,0.285c0.092,0.507,0.176,1.019,0.285,1.517
		c0.353,1.641,0.787,3.226,1.286,4.73c0.488,1.504,1.086,2.926,1.661,4.238c0.604,1.313,1.224,2.516,1.844,3.582
		c0.623,1.066,1.221,1.996,1.771,2.762c0.522,0.766,1.058,1.367,1.369,1.777c0.334,0.41,0.549,0.629,0.549,0.629
		s0.215-0.219,0.549-0.629c0.311-0.41,0.847-1.012,1.369-1.777c0.549-0.766,1.147-1.695,1.771-2.762
		c0.619-1.066,1.24-2.27,1.844-3.582c0.575-1.313,1.173-2.734,1.661-4.238c0.499-1.504,0.933-3.09,1.286-4.73
		c0.111-0.506,0.196-1.024,0.289-1.54c0.506-0.092,1.016-0.177,1.513-0.286c3.281-0.702,6.344-1.76,8.969-2.95
		c2.625-1.184,4.813-2.515,6.344-3.599c0.766-0.519,1.367-1.053,1.777-1.362c0.41-0.333,0.629-0.546,0.629-0.546
		S300.255,230.279,299.845,229.947z"/>
	<path style="fill:#F7CF52;" d="M71.311,47.918c-0.432-0.325-1.066-0.888-1.873-1.434c-1.613-1.142-3.918-2.544-6.683-3.792
		c-2.766-1.253-5.992-2.368-9.449-3.108c-0.531-0.117-1.076-0.207-1.617-0.306c-0.099-0.541-0.189-1.086-0.306-1.617
		c-0.739-3.457-1.855-6.683-3.108-9.449c-1.248-2.766-2.65-5.07-3.791-6.684c-0.547-0.806-1.11-1.44-1.435-1.872
		c-0.35-0.432-0.575-0.663-0.575-0.663s-0.225,0.23-0.575,0.663c-0.325,0.432-0.888,1.066-1.435,1.872
		c-1.141,1.613-2.544,3.918-3.791,6.684c-1.253,2.766-2.369,5.992-3.108,9.449c-0.115,0.523-0.204,1.061-0.301,1.594
		c-0.543,0.098-1.089,0.188-1.622,0.304c-1.728,0.372-3.399,0.83-4.984,1.355c-1.584,0.514-3.083,1.144-4.465,1.75
		c-1.383,0.636-2.65,1.29-3.774,1.942c-1.124,0.657-2.103,1.286-2.91,1.865c-0.807,0.551-1.44,1.115-1.873,1.443
		c-0.432,0.352-0.663,0.578-0.663,0.578s0.23,0.227,0.663,0.578c0.432,0.328,1.066,0.892,1.873,1.443
		c0.807,0.579,1.786,1.209,2.91,1.865c1.124,0.653,2.391,1.306,3.774,1.942c1.383,0.606,2.881,1.236,4.465,1.75
		c1.584,0.525,3.255,0.983,4.984,1.355c0.525,0.115,1.064,0.203,1.598,0.3c0.097,0.534,0.185,1.073,0.3,1.598
		c0.372,1.729,0.829,3.399,1.355,4.984c0.514,1.584,1.144,3.083,1.75,4.465c0.636,1.383,1.29,2.65,1.942,3.774
		c0.656,1.124,1.287,2.103,1.865,2.909c0.551,0.807,1.115,1.44,1.443,1.873c0.352,0.432,0.578,0.663,0.578,0.663
		s0.227-0.23,0.578-0.663c0.328-0.432,0.892-1.066,1.443-1.873c0.579-0.807,1.209-1.786,1.865-2.909
		c0.653-1.124,1.306-2.391,1.942-3.774c0.606-1.383,1.236-2.881,1.75-4.465c0.526-1.584,0.983-3.255,1.355-4.984
		c0.116-0.532,0.206-1.079,0.304-1.622c0.533-0.097,1.071-0.186,1.594-0.301c3.457-0.739,6.683-1.855,9.449-3.108
		c2.766-1.248,5.07-2.65,6.683-3.792c0.807-0.547,1.44-1.109,1.873-1.435c0.432-0.35,0.663-0.575,0.663-0.575
		S71.743,48.268,71.311,47.918z"/>
	<g>
		<path style="fill:#F7CF52;" d="M257.193,0c21.254,0,41.693,3.488,60.778,9.919c-75.252,25.357-129.446,96.501-129.446,180.304
			c0,83.804,54.193,154.947,129.446,180.304c-19.085,6.431-39.524,9.919-60.778,9.919c-105.058,0-190.224-85.166-190.224-190.224
			S152.136,0,257.193,0z"/>
	</g>
	<path style="fill:#E2BC50;" d="M257.2,0.003c5.8,0,11.54,0.26,17.2,0.77c-96.95,8.74-172.93,90.22-172.93,189.45
		c0,99.25,76.01,180.74,172.99,189.45c-5.68,0.51-11.44,0.77-17.26,0.77c-105.06,0-190.23-85.16-190.23-190.22
		S152.14,0.003,257.2,0.003z"/>
</g>
</svg>